<svg width="24" height="24" viewBox="0 0 24 24" fill="none" xmlns="http://www.w3.org/2000/svg">
<path fill-rule="evenodd" clip-rule="evenodd" d="M15.2717 1.5C14.0291 1.5 13.0217 2.50736 13.0217 3.75V6.52736C13.0217 6.78453 13.1267 7.03057 13.3124 7.20851C13.7933 7.66937 14.0652 8.30657 14.0652 8.97264V10.1067C14.0652 11.3864 13.4126 12.5778 12.3342 13.2668L10.4082 14.4973C9.76113 14.9107 9.36957 15.6255 9.36957 16.3933V18.75C9.36957 20.8211 7.69063 22.5 5.61957 22.5H3.75C1.67893 22.5 0 20.8211 0 18.75V17.1787C0 16.0489 0.509387 14.9793 1.38657 14.2673L1.84647 14.8338L1.38657 14.2673L2.94926 12.9987C3.42145 12.6154 3.69565 12.0396 3.69565 11.4315V10.9726C3.69565 10.7155 3.59066 10.4694 3.40498 10.2915C2.92409 9.83063 2.65217 9.19343 2.65217 8.52736V6.11957C2.65217 4.12053 4.27271 2.5 6.27174 2.5C8.27077 2.5 9.8913 4.12053 9.8913 6.11957V7.96981C9.8913 8.99204 9.47399 9.96997 8.73595 10.6773L8.61676 10.7915L7.5789 9.70851L7.69809 9.59428C8.14092 9.16991 8.3913 8.58315 8.3913 7.96981V6.11957C8.3913 4.94896 7.44234 4 6.27174 4C5.10114 4 4.15217 4.94896 4.15217 6.11957V8.52736C4.15217 8.78453 4.25716 9.03057 4.44284 9.20851C4.92374 9.66937 5.19565 10.3066 5.19565 10.9726V11.4315C5.19565 12.4916 4.71769 13.4952 3.89463 14.1633L2.33194 15.4318C1.80563 15.8591 1.5 16.5008 1.5 17.1787V18.75C1.5 19.9926 2.50736 21 3.75 21H5.61957C6.86221 21 7.86957 19.9926 7.86957 18.75V16.3933C7.86957 15.1136 8.52218 13.9222 9.60061 13.2332L11.5266 12.0027C12.1736 11.5893 12.5652 10.8745 12.5652 10.1067V8.97264C12.5652 8.71546 12.4602 8.46943 12.2745 8.29149C11.7937 7.83063 11.5217 7.19343 11.5217 6.52736V3.75C11.5217 1.67893 13.2007 0 15.2717 0H16.5761C18.6472 0 20.3261 1.67893 20.3261 3.75V6.52736C20.3261 7.19343 20.0542 7.83063 19.5733 8.29149L19.0543 7.75L19.5733 8.29149C19.3876 8.46943 19.2826 8.71547 19.2826 8.97264V10.1067C19.2826 10.8745 19.6742 11.5893 20.3212 12.0027L22.2472 13.2332C23.3256 13.9222 23.9783 15.1136 23.9783 16.3933V18.75C23.9783 20.8211 22.2993 22.5 20.2283 22.5H11.2283V21H20.2283C21.4709 21 22.4783 19.9926 22.4783 18.75V16.3933C22.4783 15.6255 22.0867 14.9107 21.4396 14.4973L19.5136 13.2668C18.4352 12.5778 17.7826 11.3864 17.7826 10.1067V8.97264C17.7826 8.30657 18.0545 7.66937 18.5354 7.20851C18.7211 7.03057 18.8261 6.78453 18.8261 6.52736V3.75C18.8261 2.50736 17.8187 1.5 16.5761 1.5H15.2717Z" fill="black"/>
</svg>
