<svg width="60" height="60" viewBox="0 0 60 60" fill="none" xmlns="http://www.w3.org/2000/svg">
<circle r="30" transform="matrix(-1 0 0 1 30 30)" fill="#DDEAFF"/>
<circle r="22.1053" transform="matrix(-1 0 0 1 30.0002 29.9998)" fill="#1467FF"/>
<path d="M22.2929 30.7071C21.9024 30.3166 21.9024 29.6834 22.2929 29.2929L28.6569 22.9289C29.0474 22.5384 29.6805 22.5384 30.0711 22.9289C30.4616 23.3195 30.4616 23.9526 30.0711 24.3431L24.4142 30L30.0711 35.6569C30.4616 36.0474 30.4616 36.6805 30.0711 37.0711C29.6805 37.4616 29.0474 37.4616 28.6569 37.0711L22.2929 30.7071ZM38 31L23 31V29L38 29V31Z" fill="white"/>
</svg>
