<svg width="24" height="25" viewBox="0 0 24 25" fill="none" xmlns="http://www.w3.org/2000/svg">
<path fill-rule="evenodd" clip-rule="evenodd" d="M19.5123 23.2508C20.0645 23.2508 20.5123 22.8031 20.5123 22.2508C20.5123 21.6985 20.0645 21.2508 19.5123 21.2508C18.96 21.2508 18.5123 21.6985 18.5123 22.2508C18.5123 22.8031 18.96 23.2508 19.5123 23.2508ZM19.5123 24.7508C20.893 24.7508 22.0123 23.6315 22.0123 22.2508C22.0123 20.8701 20.893 19.7508 19.5123 19.7508C18.1315 19.7508 17.0123 20.8701 17.0123 22.2508C17.0123 23.6315 18.1315 24.7508 19.5123 24.7508Z" fill="black"/>
<path fill-rule="evenodd" clip-rule="evenodd" d="M8.49999 23.2508C9.05228 23.2508 9.49999 22.8031 9.49999 22.2508C9.49999 21.6985 9.05228 21.2508 8.49999 21.2508C7.94771 21.2508 7.49999 21.6985 7.49999 22.2508C7.49999 22.8031 7.94771 23.2508 8.49999 23.2508ZM8.49999 24.7508C9.8807 24.7508 11 23.6315 11 22.2508C11 20.8701 9.8807 19.7508 8.49999 19.7508C7.11928 19.7508 5.99999 20.8701 5.99999 22.2508C5.99999 23.6315 7.11928 24.7508 8.49999 24.7508Z" fill="black"/>
<path fill-rule="evenodd" clip-rule="evenodd" d="M0.526685 0.79776L2.58006 1.56777C4.04369 2.11664 5.01334 3.51584 5.01334 5.07901V14.5986L5.42359 14.8721C5.7932 15.1185 6.22746 15.25 6.67167 15.25H18.7633C20.006 15.25 22.0133 14.2426 22.0133 13C22.0133 11.7574 22.0133 8.50001 22.0133 8.50001H23.5133C23.5133 8.50001 23.5133 10.9289 23.5133 13C23.5133 15.0711 20.8344 16.75 18.7633 16.75H6.67167C6.09441 16.75 5.52722 16.6168 5.01334 16.3634V17.5C5.01334 18.7426 6.0207 19.75 7.26334 19.75H19.7633V21.25H7.26334C5.19227 21.25 3.51334 19.5711 3.51334 17.5V5.07901C3.51334 4.14111 2.93155 3.30159 2.05337 2.97227L0 2.20225L0.526685 0.79776Z" fill="black"/>
<path fill-rule="evenodd" clip-rule="evenodd" d="M8 2V10C8 11.6569 9.34168 13 10.9985 13H19V4.99853C19 3.34168 17.6569 2 16 2H8ZM10.5607 3.5L17.5 10.4393V4.99853C17.5 4.17106 16.8294 3.5 16 3.5H10.5607ZM16.4393 11.5L9.5 4.56066V10C9.5 10.8294 10.1711 11.5 10.9985 11.5H16.4393Z" fill="black"/>
</svg>
