<svg width="30" height="30" viewBox="0 0 30 30" fill="none" xmlns="http://www.w3.org/2000/svg">
<path d="M27.7215 10.0812C27.815 9.58012 27.8623 9.07151 27.863 8.56176C27.8573 3.82752 24.0148 -0.00570698 19.2806 6.37846e-06C15.6766 0.00433849 12.4603 2.26237 11.232 5.65052C9.03272 4.77506 6.54012 5.84817 5.6646 8.04743C5.58882 8.23779 5.52678 8.4333 5.47901 8.63252C1.96736 9.15771 -0.453601 12.4302 0.071589 15.9419C0.542596 19.0913 3.24822 21.4213 6.43264 21.42H11.7902C12.382 21.42 12.8617 20.9403 12.8617 20.3485C12.8617 19.7567 12.382 19.2769 11.7902 19.2769H6.43264C4.06548 19.2769 2.14655 17.358 2.14655 14.9909C2.14655 12.6237 4.06548 10.7048 6.43264 10.7048C7.02444 10.7048 7.50417 10.225 7.50417 9.63324C7.50612 8.44969 8.46716 7.49179 9.6507 7.49374C10.2104 7.49468 10.7476 7.71455 11.1473 8.10632C11.5688 8.5217 12.2472 8.51674 12.6626 8.09527C12.8185 7.937 12.9214 7.7342 12.957 7.51483C13.5387 4.01568 16.8468 1.6506 20.3459 2.23224C23.8451 2.81387 26.2102 6.12197 25.6285 9.62112C25.5939 9.82975 25.5489 10.0366 25.4938 10.2407C25.3706 10.688 25.5492 11.1637 25.9364 11.4194C27.9088 12.7281 28.4468 15.3881 27.138 17.3605C26.3458 18.5544 25.0096 19.2734 23.5769 19.2768H20.3623C19.7705 19.2768 19.2908 19.7566 19.2908 20.3484C19.2908 20.9402 19.7705 21.4199 20.3623 21.4199H23.5769C27.1276 21.4166 30.0033 18.5354 29.9999 14.9847C29.9981 13.0948 29.1649 11.3014 27.7215 10.0812Z" fill="#1467FF"/>
<path d="M22.1672 22.8055C21.752 22.4045 21.0937 22.4045 20.6785 22.8055L17.1478 26.334V10.7048C17.1478 10.113 16.6681 9.6333 16.0763 9.6333C15.4845 9.6333 15.0047 10.113 15.0047 10.7048V26.334L11.4762 22.8054C11.0505 22.3943 10.3722 22.4061 9.96108 22.8317C9.56001 23.247 9.56001 23.9053 9.96108 24.3205L15.3186 29.6781C15.7365 30.0971 16.415 30.0979 16.834 29.68C16.8346 29.6794 16.8353 29.6787 16.836 29.6781L22.1935 24.3205C22.6047 23.8949 22.5929 23.2166 22.1672 22.8055Z" fill="#1467FF"/>
</svg>
