<svg width="30" height="29" viewBox="0 0 30 29" fill="none" xmlns="http://www.w3.org/2000/svg">
<path fill-rule="evenodd" clip-rule="evenodd" d="M15.4572 2C10.9895 2 7.0676 4.32707 4.84464 7.83417L3.1554 6.76345C5.7307 2.70047 10.2779 0 15.4572 0C23.486 0 30 6.48889 30 14.5C30 22.5111 23.486 29 15.4572 29C10.2779 29 5.7307 26.2995 3.1554 22.2366L4.84464 21.1658C7.0676 24.6729 10.9895 27 15.4572 27C22.3874 27 28 21.4006 28 14.5C28 7.59942 22.3874 2 15.4572 2Z" fill="#BFD3FB"/>
<path d="M15.5 14.5H1M1 14.5L4.5 11M1 14.5L4.5 18" stroke="#2B69F6"/>
</svg>
