<svg width="30" height="30" viewBox="0 0 30 30" fill="none" xmlns="http://www.w3.org/2000/svg">
<path d="M2.10371 7.33934C3.76324 4.54562 6.28509 2.36634 9.28989 1.12936C12.2947 -0.107621 15.6199 -0.335404 18.7653 0.480278C21.9107 1.29596 24.7062 3.111 26.7312 5.65232C28.7562 8.19365 29.9012 11.3238 29.9939 14.572C30.0866 17.8201 29.1221 21.0105 27.2454 23.6632C25.3686 26.3159 22.6813 28.2875 19.5875 29.2813C16.4938 30.2751 13.161 30.2374 10.0905 29.1738C7.02001 28.1103 4.37794 26.0784 2.56174 23.3839L4.22597 22.2621C5.79916 24.5961 8.08773 26.3561 10.7474 27.2774C13.407 28.1986 16.2939 28.2313 18.9737 27.3704C21.6535 26.5096 23.9813 24.8019 25.6069 22.5041C27.2325 20.2063 28.068 17.4428 27.9877 14.6292C27.9074 11.8157 26.9156 9.10434 25.1616 6.90304C23.4075 4.70174 20.9861 3.12955 18.2615 2.42301C15.537 1.71646 12.6567 1.91377 10.0539 2.98524C7.45114 4.05672 5.26671 5.94441 3.82922 8.36434L2.10371 7.33934Z" fill="#BBD3FF"/>
<path d="M15.3536 15.3536C15.5488 15.1583 15.5488 14.8417 15.3536 14.6464L12.1716 11.4645C11.9763 11.2692 11.6597 11.2692 11.4645 11.4645C11.2692 11.6597 11.2692 11.9763 11.4645 12.1716L14.2929 15L11.4645 17.8284C11.2692 18.0237 11.2692 18.3403 11.4645 18.5355C11.6597 18.7308 11.9763 18.7308 12.1716 18.5355L15.3536 15.3536ZM0 15.5L15 15.5V14.5L0 14.5L0 15.5Z" fill="#1467FF"/>
</svg>
