<svg width="24" height="24" viewBox="0 0 24 24" fill="none" xmlns="http://www.w3.org/2000/svg">
<path d="M15.2797 12L19.0018 8.28608C19.4405 7.84841 19.682 7.26604 19.6821 6.64635C19.6821 6.02662 19.4405 5.44424 19.0018 5.00647C19.0018 5.00647 19.0017 5.00647 19.0017 5.00647C18.0996 4.10629 16.6315 4.10633 15.7293 5.00647L12 8.72755L8.27067 5.00638C7.36842 4.10629 5.90044 4.10624 4.99819 5.00643C4.55949 5.44419 4.31794 6.02661 4.31794 6.6463C4.31799 7.26599 4.55953 7.84837 4.99824 8.28604L8.7203 12L4.99819 15.7139C4.55949 16.1516 4.31794 16.734 4.31794 17.3537C4.31794 17.9734 4.55949 18.5558 4.99824 18.9935C5.44936 19.4436 6.04177 19.6687 6.63441 19.6686C7.22696 19.6686 7.8196 19.4436 8.27067 18.9935L12 15.2724L15.7293 18.9936C16.6316 19.8937 18.0996 19.8937 19.0018 18.9936C19.4405 18.5558 19.6821 17.9734 19.6821 17.3537C19.682 16.734 19.4405 16.1516 19.0018 15.7139L15.2797 12ZM18.0238 18.0134C17.6609 18.3756 17.0703 18.3756 16.7073 18.0134L12.489 13.8044C12.3539 13.6696 12.177 13.6021 12 13.6021C11.8231 13.6021 11.6462 13.6695 11.511 13.8044L7.29277 18.0134C6.92981 18.3755 6.33919 18.3756 5.97633 18.0134C5.79985 17.8374 5.70258 17.603 5.70258 17.3537C5.70263 17.1044 5.7998 16.8701 5.97628 16.6941L10.1895 12.4901C10.3197 12.3602 10.3928 12.1839 10.3928 12C10.3928 11.8161 10.3197 11.6398 10.1895 11.5099L5.97628 7.30593C5.79985 7.12987 5.70263 6.89554 5.70263 6.64626C5.70263 6.39697 5.7998 6.1626 5.97633 5.98654C6.33924 5.62443 6.92977 5.62443 7.29277 5.98654L11.511 10.1956C11.7813 10.4652 12.2188 10.4652 12.489 10.1956L16.7073 5.98654C17.0701 5.62447 17.6608 5.62438 18.0238 5.98654C18.2002 6.16265 18.2975 6.39697 18.2975 6.64626C18.2974 6.89554 18.2003 7.12982 18.0238 7.30593L13.8105 11.5099C13.6804 11.6398 13.6073 11.8161 13.6073 12C13.6073 12.1839 13.6804 12.3602 13.8105 12.4901L18.0238 16.6941C18.2003 16.8701 18.2975 17.1044 18.2975 17.3537C18.2975 17.603 18.2003 17.8373 18.0238 18.0134Z" fill="black"/>
<path d="M20.5385 0H3.46153C1.55283 0 0 1.55283 0 3.46153V20.5385C0 22.4472 1.55283 24 3.46153 24H20.5385C22.4472 24 24 22.4472 24 20.5385V3.46153C24 1.55283 22.4472 0 20.5385 0ZM22.6154 20.5385C22.6154 21.6837 21.6837 22.6154 20.5385 22.6154H3.46153C2.31633 22.6154 1.38459 21.6837 1.38459 20.5385V3.46153C1.38459 2.31633 2.31628 1.38459 3.46153 1.38459H20.5385C21.6837 1.38459 22.6154 2.31628 22.6154 3.46153V20.5385Z" fill="black"/>
</svg>
