<svg width="30" height="30" viewBox="0 0 30 30" fill="none" xmlns="http://www.w3.org/2000/svg">
<path d="M15.0053 1.60402e-07C9.00344 -0.000874657 3.57907 3.57669 1.21675 9.0941L1.02978 9.15609L1.10227 9.37355C-2.00808 17.0448 1.68921 25.7851 9.36049 28.8954C11.1522 29.6219 13.0675 29.9948 15.0009 29.9937C23.2834 29.995 29.9987 23.2816 30 14.9991C30.0012 6.7166 23.2879 0.00118741 15.0053 1.60402e-07ZM26.7687 22.5581L25.9986 21.7885V19.9958C25.9995 19.9185 25.9823 19.842 25.9486 19.7724L23.999 15.8787V13.9971C23.999 13.83 23.9156 13.6739 23.7765 13.5812L22.2769 12.5814C22.1593 12.5029 22.014 12.4778 21.8769 12.5124L20.0403 12.9713L16.9555 11.6476L16.5311 8.67419L17.7073 7.49844H20.2323L21.0821 8.77567C21.1588 8.89052 21.2798 8.96857 21.416 8.99113L24.4154 9.49102C24.4958 9.50452 24.5781 9.49796 24.6554 9.47203L27.4178 8.55122C29.7347 12.9975 29.4869 18.3452 26.7687 22.5581ZM24.7069 4.92597L23.894 5.46786L21.628 5.01446L20.1578 4.52506C20.0678 4.4945 19.971 4.49063 19.8789 4.51406L18.0202 4.97846L17.2054 4.70702L17.8093 3.49927H19.4999C19.5775 3.49933 19.654 3.4814 19.7234 3.44678L21.453 2.58196C22.6442 3.20371 23.7399 3.99304 24.7069 4.92597ZM9.52551 2.11606L10.7253 2.91589C10.7843 2.95513 10.8509 2.98138 10.9207 2.99288L13.3432 3.39679L13.1068 4.10415L11.8445 4.52556C11.7315 4.56317 11.6356 4.63991 11.5741 4.74201L10.1384 7.13451L7.83237 8.51822L4.43308 9.00362C4.18669 9.03843 4.00348 9.2492 4.00317 9.49802V10.9977C4.00317 11.1303 4.0559 11.2574 4.14963 11.3511L5.00296 12.2045V13.0633L2.92339 11.6766L2.16905 9.41354C3.60425 6.13422 6.23476 3.52477 9.52551 2.11606ZM8.10231 18.5061L5.84278 18.0537L5.00296 16.3786V15.2038L6.86557 13.3412L7.55492 14.7204C7.63959 14.8899 7.81287 14.9969 8.00233 14.9969H11.2187L12.5729 17.2539C12.6632 17.4043 12.8258 17.4963 13.0013 17.4964H14.391L14.0411 19.2495L12.1485 21.1421C12.0546 21.2358 12.0017 21.3629 12.0015 21.4955V22.7453L10.2019 24.095C10.076 24.1894 10.0019 24.3376 10.0019 24.4949V26.3005L9.38004 26.0946L8.50223 23.899V18.996C8.50229 18.7585 8.33508 18.5536 8.10231 18.5061ZM6.59962 26.1909C1.88629 22.6548 -0.106979 16.5451 1.61416 10.9097L2.02958 12.1555C2.06457 12.2609 2.13368 12.3517 2.22604 12.4134L4.71802 14.0746L4.14963 14.6434C4.0559 14.7372 4.00317 14.8643 4.00317 14.9969V16.4966C4.0031 16.5741 4.02104 16.6506 4.05565 16.72L5.05545 18.7196C5.12468 18.8577 5.25384 18.9561 5.40537 18.986L7.50494 19.4055V23.995C7.50487 24.0585 7.51693 24.1215 7.54043 24.1805L8.54022 26.6799C8.59496 26.8165 8.70706 26.922 8.84666 26.9684L10.3463 27.4683C10.3965 27.4853 10.4489 27.494 10.5018 27.4943C10.7779 27.4943 11.0017 27.2704 11.0017 26.9944V24.7448L12.8013 23.3951C12.9272 23.3007 13.0013 23.1526 13.0013 22.9952V21.7025L14.8544 19.8494C14.9241 19.7796 14.9716 19.6906 14.9909 19.5939L15.4908 17.0944C15.5449 16.8237 15.3693 16.5604 15.0985 16.5062C15.0664 16.4998 15.0337 16.4966 15.0009 16.4966H13.2842L11.93 14.2395C11.8397 14.0891 11.6771 13.9971 11.5016 13.9971H8.31127L7.45245 12.2739C7.38052 12.1301 7.2438 12.0296 7.08502 12.004C6.92631 11.9766 6.76428 12.0289 6.65161 12.144L6.00275 12.7903V11.9975C6.00275 11.8649 5.95001 11.7378 5.85628 11.6441L5.00296 10.7908V9.93143L8.07332 9.49302C8.13924 9.48346 8.20267 9.46084 8.25978 9.42654L10.7593 7.92685C10.8294 7.88473 10.8881 7.82599 10.9302 7.75588L12.3349 5.41487L13.6592 4.97296C13.8087 4.92391 13.926 4.80662 13.9751 4.65703L14.475 3.15734C14.5616 2.89521 14.4193 2.61246 14.1572 2.52585C14.133 2.51785 14.1082 2.51173 14.0831 2.50748L11.1897 2.02508L10.6813 1.68615C13.8271 0.662237 17.2342 0.788961 20.2953 2.04357L19.382 2.49948H17.5004C17.31 2.49842 17.1356 2.60564 17.0504 2.77592L16.0507 4.77551C15.9275 5.02258 16.0279 5.32277 16.275 5.44593C16.296 5.45643 16.3178 5.46542 16.3401 5.47286L17.8398 5.97276C17.9298 6.00331 18.0266 6.00719 18.1187 5.98375L19.9773 5.51935L21.3391 5.97276C21.3585 5.97975 21.3786 5.98513 21.399 5.98875L23.8985 6.48865C24.0285 6.51514 24.1637 6.48852 24.2739 6.41466L25.4117 5.65582C25.9716 6.2795 26.4749 6.95186 26.9154 7.6649L24.4559 8.48473L21.793 8.04082L20.9131 6.7211C20.8209 6.58282 20.6659 6.49946 20.4997 6.49865H17.5004C17.3678 6.49865 17.2407 6.55138 17.1469 6.64512L15.6472 8.1448C15.5359 8.25609 15.4835 8.41337 15.5058 8.56921L16.0057 12.0685C16.0308 12.2415 16.1446 12.3888 16.3056 12.4569L19.8049 13.9566C19.9051 14 20.017 14.009 20.1228 13.9821L21.9079 13.5357L22.9992 14.2645V15.9967C22.9983 16.074 23.0155 16.1505 23.0492 16.2201L24.9988 20.1138V21.9954C24.9988 22.128 25.0515 22.2551 25.1453 22.3488L26.191 23.3951C21.5531 29.5772 12.7816 30.8289 6.59962 26.1909Z" fill="#1A223F"/>
</svg>
