<svg width="26" height="29" viewBox="0 0 26 29" fill="none" xmlns="http://www.w3.org/2000/svg">
<path d="M15.0525 4.81818V3.05263C15.0525 1.91899 14.1335 1 12.9999 1V1C11.8663 1 10.9473 1.91899 10.9473 3.05263V4.81818" stroke="#BFD3FB" stroke-width="2"/>
<path d="M10.5 23.5C10.5 23.5 10 23.3431 10 25C10 26.6569 11.3431 28 13 28C14.6569 28 16 26.6569 16 25C16 23.3431 15.5 23.5 15.5 23.5" stroke="#2B69F6"/>
<path d="M5.51301 12.4754C5.75254 8.1796 8.95271 4.54546 13 4.54546C17.0473 4.54546 20.2475 8.1796 20.487 12.4754C20.5521 13.6432 20.6836 14.8066 20.919 15.8554C21.5217 18.5401 23.1247 21.4649 24.1687 23.1818H1.83131C2.8753 21.4649 4.47829 18.5401 5.08098 15.8554C5.31643 14.8066 5.44789 13.6432 5.51301 12.4754Z" stroke="#FF0000" stroke-width="2"/>
</svg>
