<svg width="22" height="24" viewBox="0 0 22 24" fill="none" xmlns="http://www.w3.org/2000/svg">
<path d="M0.75 7.75H11H21.25V21C21.25 22.2426 20.2426 23.25 19 23.25H3C1.75736 23.25 0.75 22.2426 0.75 21V7.75ZM6.54385 0.75H10.25V6.25H1.45739L4.71295 1.69221C5.1353 1.10092 5.81721 0.75 6.54385 0.75ZM11.75 6.25V0.75H15.4561C16.1828 0.75 16.8647 1.10092 17.287 1.69221L20.5426 6.25H11.75ZM10.25 12V14.25H7.5V15.75H10.25V18H11.75V15.75H14.5V14.25H11.75V12H10.25Z" stroke="black" stroke-width="1.5"/>
</svg>
