<svg width="21" height="24" viewBox="0 0 21 24" fill="none" xmlns="http://www.w3.org/2000/svg">
<path d="M11.07 -1.43051e-06C13.35 -1.43051e-06 15.13 0.629999 16.41 1.89C17.69 3.13 18.33 4.74 18.33 6.72C18.33 8.72 17.68 10.36 16.38 11.64C15.1 12.92 13.33 13.56 11.07 13.56H5.13V21H2.64V-1.43051e-06H11.07ZM10.98 11.19C12.56 11.19 13.76 10.77 14.58 9.93C15.4 9.09 15.81 8.03 15.81 6.75C15.81 5.47 15.4 4.42 14.58 3.6C13.76 2.78 12.56 2.37 10.98 2.37H5.13V11.19H10.98Z" fill="#2B69F6"/>
<path fill-rule="evenodd" clip-rule="evenodd" d="M3.64001 22V24H8.13001V16.56H13.07C15.33 16.56 17.1 15.92 18.38 14.64C19.68 13.36 20.33 11.72 20.33 9.72004C20.33 8.10235 19.9028 6.73164 19.0484 5.60791C19.2361 6.25768 19.33 6.96172 19.33 7.72003C19.33 9.72003 18.68 11.36 17.38 12.64C16.1 13.92 14.33 14.56 12.07 14.56H6.13001V22H3.64001Z" fill="#2B69F6"/>
</svg>
