<svg width="8" height="10" viewBox="0 0 8 10" fill="none" xmlns="http://www.w3.org/2000/svg">
<path d="M2.84115 6.54667H4.69448V6.22667C4.69448 5.78667 4.85448 5.60001 5.34781 5.33334C6.38781 4.78667 7.18781 4.28001 7.18781 2.94667C7.18781 1.17334 5.77448 0.17334 3.93448 0.17334C2.04115 0.17334 0.587813 1.25334 0.507812 3.34667H2.42781C2.50781 2.21334 3.12115 1.94667 3.85448 1.94667C4.85448 1.94667 5.26781 2.41334 5.26781 3.01334C5.26781 3.52001 4.96115 3.70667 4.22781 4.09334C3.22781 4.62667 2.84115 4.88001 2.84115 5.85334V6.54667ZM3.76115 9.82667C4.46781 9.82667 4.98781 9.37334 4.98781 8.69334C4.98781 8.01334 4.46781 7.56001 3.76115 7.56001C3.06781 7.56001 2.54781 8.01334 2.54781 8.69334C2.54781 9.37334 3.06781 9.82667 3.76115 9.82667Z" fill="#282828"/>
</svg>
