<svg width="16" height="15" viewBox="0 0 16 15" fill="none" xmlns="http://www.w3.org/2000/svg">
<path d="M7.04894 0.720019C7.3483 -0.201292 8.6517 -0.201292 8.95106 0.720019L10.0206 4.01182C10.1545 4.42384 10.5385 4.7028 10.9717 4.7028H14.4329C15.4016 4.7028 15.8044 5.94241 15.0207 6.51182L12.2205 8.54626C11.87 8.8009 11.7234 9.25227 11.8572 9.66429L12.9268 12.9561C13.2261 13.8774 12.1717 14.6435 11.388 14.0741L8.58778 12.0397C8.2373 11.785 7.7627 11.785 7.41221 12.0397L4.61204 14.0741C3.82833 14.6435 2.77385 13.8774 3.0732 12.9561L4.14277 9.66429C4.27665 9.25227 4.12999 8.8009 3.7795 8.54626L0.979333 6.51182C0.195619 5.94241 0.598395 4.7028 1.56712 4.7028H5.02832C5.46154 4.7028 5.8455 4.42384 5.97937 4.01182L7.04894 0.720019Z" fill="#FFE200"/>
</svg>
