<svg width="30" height="30" viewBox="0 0 30 30" fill="none" xmlns="http://www.w3.org/2000/svg">
<path d="M29.6334 27.8659L21.1022 19.3348C22.7548 17.2936 23.7497 14.6998 23.7497 11.8749C23.7497 5.32746 18.4223 0 11.8748 0C5.3274 0 0 5.3274 0 11.8748C0 18.4223 5.32746 23.7497 11.8749 23.7497C14.6998 23.7497 17.2936 22.7548 19.3348 21.1023L27.8659 29.6334C28.1097 29.8772 28.4297 29.9997 28.7497 29.9997C29.0697 29.9997 29.3897 29.8772 29.6335 29.6334C30.1222 29.1447 30.1222 28.3547 29.6334 27.8659ZM11.8749 21.2497C6.70493 21.2497 2.49999 17.0448 2.49999 11.8748C2.49999 6.70487 6.70493 2.49993 11.8749 2.49993C17.0449 2.49993 21.2498 6.70487 21.2498 11.8748C21.2498 17.0448 17.0448 21.2497 11.8749 21.2497Z" fill="white"/>
</svg>
