<svg width="24" height="24" viewBox="0 0 24 24" fill="none" xmlns="http://www.w3.org/2000/svg">
<path d="M21.8906 9.89062H21.1406V9.1875C21.1406 4.12152 17.0402 0 12 0C6.95984 0 2.85938 4.12152 2.85938 9.1875V9.89062H2.10938C0.946289 9.89062 0 10.8369 0 12V16.2188C0 17.3818 0.946289 18.3281 2.10938 18.3281H2.98022C3.27063 19.1466 4.05212 19.7344 4.96875 19.7344C6.13184 19.7344 7.07812 18.7881 7.07812 17.625V10.5938C7.07812 9.43066 6.13184 8.48438 4.96875 8.48438C4.73035 8.48438 4.50146 8.52466 4.28778 8.5979C4.58826 4.58167 7.9325 1.40625 12 1.40625C16.0675 1.40625 19.4117 4.58167 19.7122 8.5979C19.4985 8.52466 19.2697 8.48438 19.0312 8.48438C17.8682 8.48438 16.9219 9.43066 16.9219 10.5938V17.625C16.9219 18.7881 17.8682 19.7344 19.0312 19.7344C19.2777 19.7344 19.5143 19.6915 19.7344 19.6135V20.4844C19.7344 20.872 19.4189 21.1875 19.0312 21.1875H13.9885C13.6981 20.369 12.9166 19.7812 12 19.7812C10.8369 19.7812 9.89062 20.7275 9.89062 21.8906C9.89062 23.0537 10.8369 24 12 24C12.9166 24 13.6981 23.4122 13.9885 22.5938H19.0312C20.1943 22.5938 21.1406 21.6475 21.1406 20.4844V18.3281H21.8906C23.0537 18.3281 24 17.3818 24 16.2188V12C24 10.8369 23.0537 9.89062 21.8906 9.89062ZM1.40625 16.2188V12C1.40625 11.6124 1.72174 11.2969 2.10938 11.2969H2.85938V16.9219H2.10938C1.72174 16.9219 1.40625 16.6064 1.40625 16.2188ZM4.96875 9.89062C5.35638 9.89062 5.67188 10.2061 5.67188 10.5938V17.625C5.67188 18.0126 5.35638 18.3281 4.96875 18.3281C4.58112 18.3281 4.26562 18.0126 4.26562 17.625V10.5938C4.26562 10.2061 4.58112 9.89062 4.96875 9.89062ZM12 22.5938C11.6124 22.5938 11.2969 22.2783 11.2969 21.8906C11.2969 21.503 11.6124 21.1875 12 21.1875C12.3876 21.1875 12.7031 21.503 12.7031 21.8906C12.7031 22.2783 12.3876 22.5938 12 22.5938ZM19.0312 18.3281C18.6436 18.3281 18.3281 18.0126 18.3281 17.625V10.5938C18.3281 10.2061 18.6436 9.89062 19.0312 9.89062C19.4189 9.89062 19.7344 10.2061 19.7344 10.5938V17.625C19.7344 18.0126 19.4189 18.3281 19.0312 18.3281ZM22.5938 16.2188C22.5938 16.6064 22.2783 16.9219 21.8906 16.9219H21.1406V11.2969H21.8906C22.2783 11.2969 22.5938 11.6124 22.5938 12V16.2188Z" fill="black"/>
</svg>
