<svg width="25" height="25" viewBox="0 0 25 25" fill="none" xmlns="http://www.w3.org/2000/svg">
<path d="M12.5 0C5.59642 0 0 5.59642 0 12.5C0 19.4036 5.59642 25 12.5 25C19.4036 25 25 19.4036 25 12.5C25 5.59642 19.4036 0 12.5 0ZM20.0588 9.1665C20.0647 9.31407 20.0678 9.46189 20.0678 9.61049C20.0678 14.9501 16.0046 20.4731 9.20512 20.4731C7.1266 20.4731 5.10281 19.8801 3.35269 18.7575C3.31611 18.7343 3.30102 18.689 3.3156 18.6483C3.33018 18.6079 3.37136 18.5829 3.41355 18.5877C3.70716 18.6228 4.00742 18.6402 4.30537 18.6402C5.92251 18.6402 7.45345 18.1402 8.74834 17.1916C7.19616 17.0606 5.86215 16.0102 5.38235 14.5118C5.37238 14.4806 5.37954 14.4465 5.40102 14.422C5.42276 14.3974 5.45601 14.3867 5.48772 14.3926C5.9179 14.4742 6.35524 14.4795 6.77673 14.411C5.17596 13.9136 4.0509 12.4141 4.0509 10.7069L4.05141 10.6573C4.05217 10.6248 4.06982 10.5951 4.09795 10.579C4.12583 10.5627 4.16061 10.5624 4.18875 10.5783C4.60614 10.81 5.06803 10.9588 5.54194 11.0159C4.62199 10.2826 4.08184 9.1711 4.08184 7.9821C4.08184 7.29616 4.26343 6.62199 4.60716 6.03248C4.62251 6.00614 4.64962 5.98926 4.6798 5.98696C4.71023 5.98389 4.73964 5.99719 4.75882 6.02072C6.64169 8.33018 9.41125 9.75217 12.3729 9.93504C12.3235 9.68645 12.2985 9.43018 12.2985 9.17161C12.2985 7.03325 14.0381 5.29386 16.1762 5.29386C17.2274 5.29386 18.2432 5.72583 18.9714 6.48082C19.7921 6.31355 20.5739 6.01177 21.2962 5.58363C21.3292 5.56394 21.3706 5.56701 21.401 5.59079C21.4307 5.61483 21.443 5.65473 21.4312 5.69156C21.1864 6.45703 20.7092 7.12481 20.068 7.60691C20.6719 7.50179 21.2578 7.3243 21.8151 7.07698C21.8524 7.05985 21.8967 7.07059 21.9235 7.10205C21.9501 7.13376 21.9524 7.17903 21.9294 7.2133C21.4217 7.97315 20.7926 8.63018 20.0588 9.1665Z" fill="white"/>
</svg>
