<svg width="30" height="30" viewBox="0 0 30 30" fill="none" xmlns="http://www.w3.org/2000/svg">
<path d="M29.8889 14.6449C29.6527 14.3011 23.9751 6.24976 15 6.24976C7.29857 6.24976 0.43596 14.2549 0.147206 14.5962C-0.0490279 14.8287 -0.0490279 15.1699 0.147206 15.4036C0.43596 15.7449 7.29857 23.75 15 23.75C22.7013 23.75 29.5639 15.7449 29.8526 15.4036C30.0339 15.1887 30.0502 14.8774 29.8889 14.6449ZM15 22.5C8.82613 22.5 2.956 16.6125 1.46477 14.9999C2.95354 13.3862 8.8174 7.49981 15 7.49981C22.2238 7.49981 27.3226 13.3787 28.5677 14.9662C27.1301 16.5274 21.2263 22.5 15 22.5Z" fill="#1467FF"/>
<path d="M15 9.99976C12.2424 9.99976 9.99991 12.2423 9.99991 14.9998C9.99991 17.7573 12.2424 19.9999 15 19.9999C17.7575 19.9999 20 17.7573 20 14.9998C20 12.2423 17.7575 9.99976 15 9.99976ZM15 18.7499C12.9325 18.7499 11.2499 17.0674 11.2499 14.9999C11.2499 12.9324 12.9325 11.2498 15 11.2498C17.0675 11.2498 18.75 12.9324 18.75 14.9999C18.75 17.0674 17.0675 18.7499 15 18.7499Z" fill="#1467FF"/>
</svg>
