<svg width="30" height="30" viewBox="0 0 30 30" fill="none" xmlns="http://www.w3.org/2000/svg">
<path d="M29.8889 14.6449C29.6526 14.3011 23.975 6.24976 14.9999 6.24976C7.29854 6.24976 0.43593 14.2549 0.147175 14.5962C-0.0490584 14.8287 -0.0490584 15.1699 0.147175 15.4036C0.43593 15.7449 7.29854 23.75 14.9999 23.75C22.7013 23.75 29.5639 15.7449 29.8526 15.4036C30.0339 15.1887 30.0501 14.8774 29.8889 14.6449ZM14.9999 22.5C8.8261 22.5 2.95597 16.6125 1.46473 14.9999C2.95351 13.3862 8.81737 7.49981 14.9999 7.49981C22.2238 7.49981 27.3226 13.3787 28.5676 14.9662C27.1301 16.5274 21.2263 22.5 14.9999 22.5Z" fill="#FFE200"/>
<path d="M14.9999 9.99976C12.2424 9.99976 9.99988 12.2423 9.99988 14.9998C9.99988 17.7573 12.2424 19.9999 14.9999 19.9999C17.7575 19.9999 20 17.7573 20 14.9998C20 12.2423 17.7575 9.99976 14.9999 9.99976ZM14.9999 18.7499C12.9324 18.7499 11.2499 17.0674 11.2499 14.9999C11.2499 12.9324 12.9324 11.2498 14.9999 11.2498C17.0675 11.2498 18.75 12.9324 18.75 14.9999C18.75 17.0674 17.0675 18.7499 14.9999 18.7499Z" fill="#FFE200"/>
</svg>
