<svg width="20" height="20" viewBox="0 0 20 20" fill="none" xmlns="http://www.w3.org/2000/svg">
<circle cx="10" cy="10" r="10" fill="#B8C9E4"/>
<path d="M9.9932 4C10.2834 4 10.5238 4.10025 10.7143 4.30075C10.9048 4.49123 11 4.73684 11 5.03759C11 5.34837 10.9048 5.60401 10.7143 5.80451C10.5238 6.00501 10.2834 6.10526 9.9932 6.10526C9.71202 6.10526 9.47619 6.00501 9.28571 5.80451C9.09524 5.60401 9 5.34837 9 5.03759C9 4.73684 9.09524 4.49123 9.28571 4.30075C9.47619 4.10025 9.71202 4 9.9932 4ZM9.23129 16V7.72932H10.7687V16H9.23129Z" fill="#2B69F6"/>
</svg>
