<svg width="31" height="31" viewBox="0 0 31 31" fill="none" xmlns="http://www.w3.org/2000/svg">
<circle cx="15.5" cy="15.5" r="15.5" fill="#FF0000"/>
<path d="M14.386 8.3H17.494L16.969 18.128H14.89L14.386 8.3ZM15.94 23.147C15.45 23.147 15.044 22.993 14.722 22.685C14.4 22.363 14.239 21.971 14.239 21.509C14.239 21.047 14.4 20.662 14.722 20.354C15.044 20.046 15.45 19.892 15.94 19.892C16.416 19.892 16.808 20.046 17.116 20.354C17.438 20.662 17.599 21.047 17.599 21.509C17.599 21.971 17.438 22.363 17.116 22.685C16.808 22.993 16.416 23.147 15.94 23.147Z" fill="white"/>
</svg>
