<svg width="30" height="30" viewBox="0 0 30 30" fill="none" xmlns="http://www.w3.org/2000/svg">
<g clip-path="url(#clip0_1_3227)">
<path d="M15.0053 0.00311295C9.00344 0.00223814 3.57907 3.5798 1.21675 9.09722L1.02978 9.15921L1.10227 9.37666C-2.00808 17.0479 1.68921 25.7882 9.36049 28.8985C11.1522 29.625 13.0675 29.9979 15.0009 29.9969C23.2834 29.9981 29.9987 23.2848 30 15.0022C30.0012 6.71971 23.2879 0.00430021 15.0053 0.00311295ZM26.7687 22.5612L25.9986 21.7916V19.9989C25.9995 19.9216 25.9823 19.8451 25.9486 19.7755L23.999 15.8818V14.0002C23.999 13.8331 23.9156 13.677 23.7765 13.5843L22.2769 12.5845C22.1593 12.506 22.014 12.4809 21.8769 12.5155L20.0403 12.9744L16.9555 11.6507L16.5311 8.67731L17.7073 7.50155H20.2323L21.0821 8.77878C21.1588 8.89364 21.2798 8.97168 21.416 8.99424L24.4154 9.49413C24.4958 9.50763 24.5781 9.50107 24.6554 9.47514L27.4178 8.55433C29.7347 13.0006 29.4869 18.3483 26.7687 22.5612ZM24.7069 4.92909L23.894 5.47097L21.628 5.01757L20.1578 4.52817C20.0678 4.49761 19.971 4.49374 19.8789 4.51717L18.0202 4.98158L17.2054 4.71013L17.8093 3.50238H19.4999C19.5775 3.50245 19.654 3.48451 19.7234 3.44989L21.453 2.58507C22.6442 3.20682 23.7399 3.99616 24.7069 4.92909ZM9.52551 2.11917L10.7253 2.91901C10.7843 2.95825 10.8509 2.98449 10.9207 2.99599L13.3432 3.3999L13.1068 4.10726L11.8445 4.52867C11.7315 4.56629 11.6356 4.64302 11.5741 4.74513L10.1384 7.13763L7.83237 8.52134L4.43308 9.00674C4.18669 9.04154 4.00348 9.25231 4.00317 9.50113V11.0008C4.00317 11.1334 4.0559 11.2605 4.14963 11.3542L5.00296 12.2076V13.0664L2.92339 11.6797L2.16905 9.41665C3.60425 6.13733 6.23476 3.52788 9.52551 2.11917ZM8.10231 18.5093L5.84278 18.0569L5.00296 16.3817V15.2069L6.86557 13.3443L7.55492 14.7235C7.63959 14.893 7.81287 15.0001 8.00233 15H11.2187L12.5729 17.257C12.6632 17.4074 12.8258 17.4994 13.0013 17.4995H14.391L14.0411 19.2526L12.1485 21.1452C12.0546 21.2389 12.0017 21.366 12.0015 21.4986V22.7484L10.2019 24.0981C10.076 24.1925 10.0019 24.3407 10.0019 24.498V26.3036L9.38004 26.0977L8.50223 23.9021V18.9992C8.50229 18.7616 8.33508 18.5567 8.10231 18.5093ZM6.59962 26.194C1.88629 22.6579 -0.106979 16.5482 1.61416 10.9128L2.02958 12.1586C2.06457 12.264 2.13368 12.3548 2.22604 12.4165L4.71802 14.0777L4.14963 14.6466C4.0559 14.7403 4.00317 14.8674 4.00317 15V16.4997C4.0031 16.5772 4.02104 16.6537 4.05565 16.7231L5.05545 18.7227C5.12468 18.8608 5.25384 18.9592 5.40537 18.9892L7.50494 19.4086V23.9981C7.50487 24.0616 7.51693 24.1246 7.54043 24.1836L8.54022 26.6831C8.59496 26.8196 8.70706 26.9251 8.84666 26.9715L10.3463 27.4714C10.3965 27.4884 10.4489 27.4971 10.5018 27.4974C10.7779 27.4974 11.0017 27.2736 11.0017 26.9975V24.748L12.8013 23.3982C12.9272 23.3038 13.0013 23.1557 13.0013 22.9983V21.7056L14.8544 19.8525C14.9241 19.7827 14.9716 19.6938 14.9909 19.597L15.4908 17.0976C15.5449 16.8268 15.3693 16.5635 15.0985 16.5094C15.0664 16.5029 15.0337 16.4997 15.0009 16.4997H13.2842L11.93 14.2426C11.8397 14.0922 11.6771 14.0003 11.5016 14.0002H8.31127L7.45245 12.2771C7.38052 12.1332 7.2438 12.0327 7.08502 12.0071C6.92631 11.9797 6.76428 12.032 6.65161 12.1471L6.00275 12.7934V12.0006C6.00275 11.868 5.95001 11.7409 5.85628 11.6472L5.00296 10.7939V9.93454L8.07332 9.49613C8.13924 9.48657 8.20267 9.46395 8.25978 9.42965L10.7593 7.92996C10.8294 7.88785 10.8881 7.82911 10.9302 7.759L12.3349 5.41798L13.6592 4.97608C13.8087 4.92702 13.926 4.80974 13.9751 4.66014L14.475 3.16045C14.5616 2.89832 14.4193 2.61557 14.1572 2.52896C14.133 2.52096 14.1082 2.51484 14.0831 2.51059L11.1897 2.02819L10.6813 1.68926C13.8271 0.66535 17.2342 0.792074 20.2953 2.04669L19.382 2.50259H17.5004C17.31 2.50153 17.1356 2.60876 17.0504 2.77903L16.0507 4.77862C15.9275 5.02569 16.0279 5.32588 16.275 5.44904C16.296 5.45954 16.3178 5.46854 16.3401 5.47597L17.8398 5.97587C17.9298 6.00642 18.0266 6.0103 18.1187 5.98687L19.9773 5.52246L21.3391 5.97587C21.3585 5.98287 21.3786 5.98824 21.399 5.99187L23.8985 6.49176C24.0285 6.51826 24.1637 6.49164 24.2739 6.41778L25.4117 5.65893C25.9716 6.28262 26.4749 6.95498 26.9154 7.66802L24.4559 8.48784L21.793 8.04394L20.9131 6.72421C20.8209 6.58593 20.6659 6.50257 20.4997 6.50176H17.5004C17.3678 6.50176 17.2407 6.5545 17.1469 6.64823L15.6472 8.14791C15.5359 8.2592 15.4835 8.41648 15.5058 8.57233L16.0057 12.0716C16.0308 12.2446 16.1446 12.3919 16.3056 12.46L19.8049 13.9597C19.9051 14.0031 20.017 14.0121 20.1228 13.9852L21.9079 13.5388L22.9992 14.2676V15.9998C22.9983 16.0771 23.0155 16.1536 23.0492 16.2232L24.9988 20.1169V21.9985C24.9988 22.1311 25.0515 22.2582 25.1453 22.352L26.191 23.3982C21.5531 29.5803 12.7816 30.832 6.59962 26.194Z" fill="#1A223F"/>
</g>
<defs>
<clipPath id="clip0_1_3227">
<rect width="30" height="30" fill="white"/>
</clipPath>
</defs>
</svg>
