<svg width="198" height="27" viewBox="0 0 198 27" fill="none" xmlns="http://www.w3.org/2000/svg">
<path d="M8.425 5.95C10.2417 5.95 11.75 6.625 12.95 7.975C14.15 9.325 14.75 11.0417 14.75 13.125C14.75 15.225 14.15 16.95 12.95 18.3C11.7667 19.6333 10.25 20.3 8.4 20.3C6.31667 20.3 4.71667 19.4333 3.6 17.7V26.25H0.775V6.25H3.6V8.6C4.71667 6.83333 6.325 5.95 8.425 5.95ZM7.8 17.6C9 17.6 9.98333 17.1833 10.75 16.35C11.5167 15.5167 11.9 14.4417 11.9 13.125C11.9 11.8083 11.5167 10.7333 10.75 9.9C9.98333 9.06667 9 8.65 7.8 8.65C6.58333 8.65 5.575 9.075 4.775 9.925C3.975 10.7583 3.575 11.825 3.575 13.125C3.575 14.4417 3.975 15.5167 4.775 16.35C5.575 17.1833 6.58333 17.6 7.8 17.6ZM25.1184 5.95C25.4684 5.95 25.7434 5.975 25.9434 6.025V8.9C25.61 8.86667 25.3267 8.85 25.0934 8.85C23.7267 8.85 22.6267 9.25833 21.7934 10.075C20.96 10.875 20.5434 12.0833 20.5434 13.7V20H17.7184V6.25H20.5434V8.975C21.41 6.95833 22.935 5.95 25.1184 5.95ZM34.7479 5.95C36.7479 5.95 38.4312 6.63333 39.7979 8C41.1812 9.36667 41.8729 11.075 41.8729 13.125C41.8729 15.175 41.1895 16.8833 39.8229 18.25C38.4562 19.6167 36.7645 20.3 34.7479 20.3C32.7479 20.3 31.0562 19.6167 29.6729 18.25C28.3062 16.8667 27.6229 15.1583 27.6229 13.125C27.6229 11.075 28.3145 9.36667 29.6979 8C31.0812 6.63333 32.7645 5.95 34.7479 5.95ZM37.7729 9.925C36.9562 9.075 35.9479 8.65 34.7479 8.65C33.5479 8.65 32.5312 9.075 31.6979 9.925C30.8812 10.7583 30.4729 11.825 30.4729 13.125C30.4729 14.4417 30.8812 15.5167 31.6979 16.35C32.5145 17.1833 33.5312 17.6 34.7479 17.6C35.9645 17.6 36.9812 17.1833 37.7979 16.35C38.6145 15.5167 39.0229 14.4417 39.0229 13.125C39.0229 11.825 38.6062 10.7583 37.7729 9.925ZM50.8988 20.3C49.0822 20.3 47.5655 19.8833 46.3488 19.05C45.1488 18.2167 44.4155 17.0583 44.1488 15.575H47.0238C47.2405 16.3417 47.6572 16.9083 48.2738 17.275C48.8905 17.625 49.7822 17.8 50.9488 17.8C51.8655 17.8 52.5822 17.6667 53.0988 17.4C53.6322 17.1167 53.8988 16.725 53.8988 16.225C53.8988 15.8917 53.7655 15.6167 53.4988 15.4C53.2488 15.1833 52.9488 15.025 52.5988 14.925C52.2655 14.825 51.7155 14.6833 50.9488 14.5C50.6655 14.4333 50.4488 14.3833 50.2988 14.35C48.2488 13.85 46.8238 13.3333 46.0238 12.8C45.2238 12.25 44.8238 11.425 44.8238 10.325C44.8238 8.95833 45.3488 7.89167 46.3988 7.125C47.4655 6.34167 48.8738 5.95 50.6238 5.95C52.3405 5.95 53.6988 6.325 54.6988 7.075C55.7155 7.80833 56.3572 8.825 56.6238 10.125H53.7738C53.3738 9.00833 52.3072 8.45 50.5738 8.45C49.6738 8.45 48.9655 8.59167 48.4488 8.875C47.9322 9.15833 47.6738 9.54167 47.6738 10.025C47.6738 10.4417 47.8822 10.75 48.2988 10.95C48.7155 11.1333 49.5905 11.3833 50.9238 11.7C51.7905 11.9 52.4738 12.075 52.9738 12.225C53.4905 12.3583 54.0238 12.5417 54.5738 12.775C55.1238 13.0083 55.5405 13.2583 55.8238 13.525C56.1072 13.7917 56.3405 14.125 56.5238 14.525C56.7072 14.9083 56.7988 15.3667 56.7988 15.9C56.7988 17.3167 56.2405 18.4083 55.1238 19.175C54.0238 19.925 52.6155 20.3 50.8988 20.3ZM69.4984 17L69.9984 19.3C68.8818 19.9667 67.5734 20.3 66.0734 20.3C64.5901 20.3 63.3818 19.825 62.4484 18.875C61.5151 17.925 61.0484 16.5417 61.0484 14.725V8.9H58.4984V6.25H61.0484V3.125L63.8734 2.5V6.25H69.5234V8.9H63.8734V14.575C63.8734 16.6417 64.7734 17.675 66.5734 17.675C67.2401 17.675 68.2151 17.45 69.4984 17ZM78.7264 5.95C80.7264 5.95 82.4097 6.63333 83.7764 8C85.1597 9.36667 85.8514 11.075 85.8514 13.125C85.8514 15.175 85.168 16.8833 83.8014 18.25C82.4347 19.6167 80.743 20.3 78.7264 20.3C76.7264 20.3 75.0347 19.6167 73.6514 18.25C72.2847 16.8667 71.6014 15.1583 71.6014 13.125C71.6014 11.075 72.293 9.36667 73.6764 8C75.0597 6.63333 76.743 5.95 78.7264 5.95ZM81.7514 9.925C80.9347 9.075 79.9264 8.65 78.7264 8.65C77.5264 8.65 76.5097 9.075 75.6764 9.925C74.8597 10.7583 74.4514 11.825 74.4514 13.125C74.4514 14.4417 74.8597 15.5167 75.6764 16.35C76.493 17.1833 77.5097 17.6 78.7264 17.6C79.943 17.6 80.9597 17.1833 81.7764 16.35C82.593 15.5167 83.0014 14.4417 83.0014 13.125C83.0014 11.825 82.5847 10.7583 81.7514 9.925ZM96.4523 5.95C98.269 5.95 99.7773 6.625 100.977 7.975C102.177 9.325 102.777 11.0417 102.777 13.125C102.777 15.225 102.177 16.95 100.977 18.3C99.794 19.6333 98.2773 20.3 96.4273 20.3C94.344 20.3 92.744 19.4333 91.6273 17.7V20H88.8023V0.749999H91.6273V8.6C92.744 6.83333 94.3523 5.95 96.4523 5.95ZM95.8273 17.6C97.0273 17.6 98.0107 17.1833 98.7773 16.35C99.544 15.5167 99.9273 14.4417 99.9273 13.125C99.9273 11.8083 99.544 10.7333 98.7773 9.9C98.0107 9.06667 97.0273 8.65 95.8273 8.65C94.6107 8.65 93.6023 9.075 92.8023 9.925C92.0023 10.7583 91.6023 11.825 91.6023 13.125C91.6023 14.4417 92.0023 15.5167 92.8023 16.35C93.6023 17.1833 94.6107 17.6 95.8273 17.6ZM112.424 5.95C114.424 5.95 116.107 6.63333 117.474 8C118.857 9.36667 119.549 11.075 119.549 13.125C119.549 15.175 118.865 16.8833 117.499 18.25C116.132 19.6167 114.44 20.3 112.424 20.3C110.424 20.3 108.732 19.6167 107.349 18.25C105.982 16.8667 105.299 15.1583 105.299 13.125C105.299 11.075 105.99 9.36667 107.374 8C108.757 6.63333 110.44 5.95 112.424 5.95ZM115.449 9.925C114.632 9.075 113.624 8.65 112.424 8.65C111.224 8.65 110.207 9.075 109.374 9.925C108.557 10.7583 108.149 11.825 108.149 13.125C108.149 14.4417 108.557 15.5167 109.374 16.35C110.19 17.1833 111.207 17.6 112.424 17.6C113.64 17.6 114.657 17.1833 115.474 16.35C116.29 15.5167 116.699 14.4417 116.699 13.125C116.699 11.825 116.282 10.7583 115.449 9.925ZM133.627 20H130.252L126.927 15.075L123.727 20H120.327L125.252 12.925L120.602 6.25H123.977L127.027 10.85L129.977 6.25H133.377L128.727 12.975L133.627 20ZM136.904 17.275C137.254 16.9417 137.695 16.775 138.229 16.775C138.762 16.775 139.204 16.9417 139.554 17.275C139.904 17.5917 140.079 18.0083 140.079 18.525C140.079 19.0417 139.904 19.4667 139.554 19.8C139.204 20.1333 138.762 20.3 138.229 20.3C137.695 20.3 137.254 20.1333 136.904 19.8C136.57 19.4667 136.404 19.0417 136.404 18.525C136.404 18.0083 136.57 17.5917 136.904 17.275ZM150.543 20.3C148.509 20.3 146.809 19.6167 145.443 18.25C144.093 16.8833 143.418 15.175 143.418 13.125C143.418 11.075 144.093 9.36667 145.443 8C146.809 6.63333 148.518 5.95 150.568 5.95C152.234 5.95 153.701 6.43333 154.968 7.4C156.234 8.35 157.018 9.63333 157.318 11.25H154.393C154.143 10.4 153.668 9.74167 152.968 9.275C152.268 8.80833 151.468 8.575 150.568 8.575C149.301 8.575 148.268 9 147.468 9.85C146.668 10.7 146.268 11.7917 146.268 13.125C146.268 14.4583 146.668 15.55 147.468 16.4C148.268 17.25 149.293 17.675 150.543 17.675C151.459 17.675 152.259 17.4333 152.943 16.95C153.643 16.4667 154.126 15.8083 154.393 14.975H157.318C157.001 16.625 156.209 17.925 154.943 18.875C153.676 19.825 152.209 20.3 150.543 20.3ZM166.708 5.95C168.708 5.95 170.391 6.63333 171.758 8C173.141 9.36667 173.833 11.075 173.833 13.125C173.833 15.175 173.149 16.8833 171.783 18.25C170.416 19.6167 168.724 20.3 166.708 20.3C164.708 20.3 163.016 19.6167 161.633 18.25C160.266 16.8667 159.583 15.1583 159.583 13.125C159.583 11.075 160.274 9.36667 161.658 8C163.041 6.63333 164.724 5.95 166.708 5.95ZM169.733 9.925C168.916 9.075 167.908 8.65 166.708 8.65C165.508 8.65 164.491 9.075 163.658 9.925C162.841 10.7583 162.433 11.825 162.433 13.125C162.433 14.4417 162.841 15.5167 163.658 16.35C164.474 17.1833 165.491 17.6 166.708 17.6C167.924 17.6 168.941 17.1833 169.758 16.35C170.574 15.5167 170.983 14.4417 170.983 13.125C170.983 11.825 170.566 10.7583 169.733 9.925ZM192.784 5.95C194.234 5.95 195.367 6.41667 196.184 7.35C197.017 8.26667 197.434 9.54167 197.434 11.175V20H194.609V11.775C194.609 9.69167 193.7 8.65 191.884 8.65C190.8 8.65 189.967 9.03333 189.384 9.8C188.8 10.5667 188.509 11.5917 188.509 12.875L188.534 20H185.684V11.775C185.684 9.69167 184.775 8.65 182.959 8.65C181.875 8.65 181.042 9.03333 180.459 9.8C179.892 10.5667 179.609 11.5917 179.609 12.875V20H176.784V6.25H179.609V8.45C180.609 6.78333 182.034 5.95 183.884 5.95C186.017 5.95 187.434 6.90833 188.134 8.825C189.134 6.90833 190.684 5.95 192.784 5.95Z" fill="black"/>
</svg>
