<svg width="70" height="60" viewBox="0 0 70 60" fill="none" xmlns="http://www.w3.org/2000/svg">
<rect width="70" height="60" rx="20" fill="#1467FF"/>
<path d="M49.6334 42.8659L41.1022 34.3348C42.7548 32.2936 43.7497 29.6998 43.7497 26.8749C43.7497 20.3275 38.4223 15 31.8748 15C25.3274 15 20 20.3274 20 26.8748C20 33.4223 25.3275 38.7497 31.8749 38.7497C34.6998 38.7497 37.2936 37.7548 39.3348 36.1023L47.8659 44.6334C48.1097 44.8772 48.4297 44.9997 48.7497 44.9997C49.0697 44.9997 49.3897 44.8772 49.6335 44.6334C50.1222 44.1447 50.1222 43.3547 49.6334 42.8659ZM31.8749 36.2497C26.7049 36.2497 22.5 32.0448 22.5 26.8748C22.5 21.7049 26.7049 17.4999 31.8749 17.4999C37.0449 17.4999 41.2498 21.7049 41.2498 26.8748C41.2498 32.0448 37.0448 36.2497 31.8749 36.2497Z" fill="white"/>
</svg>
